<?xml version="1.0" encoding="utf-8"?>
<!-- Svg Vector Icons : http://www.onlinewebfonts.com/icon -->
<!DOCTYPE svg PUBLIC "-//W3C//DTD SVG 1.1//EN" "http://www.w3.org/Graphics/SVG/1.1/DTD/svg11.dtd">
<svg version="1.1" xmlns="http://www.w3.org/2000/svg" x="0px" y="0px"
     viewBox="0 0 1000 1000" enable-background="new 0 0 1000 1000" xml:space="preserve">
<metadata> Svg Vector Icons : http://www.onlinewebfonts.com/icon </metadata>
    <g><g transform="translate(0.000000,511.000000) scale(0.100000,-0.100000)"><path d="M4361.8,4990.5c-1092.7-149.4-2042.2-622.6-2836-1413.3C816,2867.4,386.4,2073.5,171.6,1071.1C109.3,791,100,650.9,100,106.1c0-541.7,9.3-684.9,68.5-955.7c221-1018,644.4-1802.5,1357.3-2518.5c709.8-706.6,1506.7-1139.4,2518.5-1357.3c270.8-59.1,414-68.5,955.7-68.5s684.9,9.4,955.7,68.5c1998.6,432.7,3443.1,1877.2,3875.8,3875.8c59.2,270.8,68.5,414,68.5,955.7c0,541.7-9.4,684.9-68.5,955.7c-217.9,1011.8-650.6,1808.7-1357.3,2518.5c-712.9,709.8-1509.9,1142.5-2502.9,1351.1C5619.5,5006.1,4716.7,5040.3,4361.8,4990.5z M5429.6,4682.3c1108.3-118.3,2026.7-554.1,2811.1-1335.5C9489,2095.3,9912.4,333.3,9358.3-1329.1c-239.7-719.1-572.8-1257.7-1117.6-1805.6C7123.1-4249.1,5591.5-4709.9,4050.5-4392.3C2683.9-4109.1,1451.1-3134.7,847.1-1855.2C115.6-308,299.2,1491.4,1323.4,2861.1c305.1,407.8,825,884.1,1263.9,1161.2c227.2,140.1,709.8,364.2,990,454.5C4184.4,4676.1,4825.6,4744.6,5429.6,4682.3z"/><path
            d="M1613,1861.9c-121.4-84-87.2-168.1,196.1-448.3l264.6-261.5l-264.6-270.8c-267.7-270.8-314.4-370.4-227.2-457.6c90.3-90.3,193-40.5,445.2,211.7c137,137,261.5,249,280.2,249s143.2-112.1,280.2-249c214.8-214.8,261.5-249,342.4-242.8c68.5,6.2,99.6,31.1,121.4,96.5c28,80.9,15.6,102.7-245.9,364.2l-280.2,280.2l273.9,273.9c292.6,292.6,326.9,373.6,196.1,457.6c-102.7,68.5-161.9,34.2-460.7-258.4L2291.6,1370l-273.9,270.8c-152.6,149.4-292.6,270.8-305.1,270.8C1697,1911.7,1650.3,1889.9,1613,1861.9z"/><path
            d="M6998.6,1861.9c-121.4-84-84-165,202.3-454.5l274-273.9l-280.2-280.2c-261.5-261.5-274-283.3-246-364.2c21.8-65.4,52.9-90.3,121.4-96.5c80.9-6.2,127.6,28,342.4,242.8c137,137,261.5,249,280.2,249c18.7,0,143.2-112.1,280.2-249c252.1-252.2,354.9-302,445.1-211.7c87.2,87.2,40.5,186.8-227.2,457.6l-264.6,270.8l264.6,261.5c283.3,280.2,317.5,364.2,196.1,448.3c-37.3,28-84,49.8-99.6,49.8c-12.5,0-152.6-121.4-305.1-270.8L7708.4,1370l-242.8,236.6c-202.4,199.2-336.2,305.1-386,305.1C7073.3,1911.7,7036,1889.9,6998.6,1861.9z"/><path
            d="M2005.2-594.4c-28-59.2-24.9-90.3,18.7-155.7l49.8-77.8h853h853l12.5-753.4c15.6-927.7,37.3-1008.6,364.2-1335.5c267.7-267.7,467-351.8,843.6-351.8s575.9,84.1,843.6,351.8c326.9,326.9,348.6,407.8,364.2,1335.5l12.5,753.4h853h853l49.8,77.8c43.6,65.4,46.7,96.5,18.7,155.7l-37.3,77.8H5000H2042.6L2005.2-594.4z M4844.3-1543.9c0-672.4,3.1-716,59.1-747.1c84.1-43.6,146.3-40.5,202.3,18.7c43.6,40.5,49.8,152.5,49.8,747.1v697.3h358h358v-725.3v-728.5l-96.5-196.1c-155.7-308.2-410.9-460.7-775.2-460.7c-364.2,0-619.5,152.5-775.2,460.7l-96.5,196.1v728.5v725.3h358h358V-1543.9z"/></g></g>
</svg>